<?xml version="1.0" standalone="no"?>
<!DOCTYPE svg PUBLIC "-//W3C//DTD SVG 20010904//EN"
 "http://www.w3.org/TR/2001/REC-SVG-20010904/DTD/svg10.dtd">
<svg version="1.0" xmlns="http://www.w3.org/2000/svg"
 width="1024.000000pt" height="1024.000000pt" viewBox="0 0 1024.000000 1024.000000"
 preserveAspectRatio="xMidYMid meet">

<g transform="translate(0.000000,1024.000000) scale(0.100000,-0.100000)"
fill="#000000" stroke="none">
<path d="M1474 8235 c-218 -47 -400 -208 -475 -418 -19 -56 -22 -90 -29 -375
-13 -492 -4 -5013 9 -5097 28 -176 130 -332 279 -426 84 -53 170 -85 266 -98
54 -8 1137 -11 3611 -11 3770 0 3604 -2 3725 46 183 73 323 225 382 414 l23
75 0 2695 0 2695 -28 80 c-74 210 -245 365 -458 415 -86 20 -104 20 -3665 19
-2933 0 -3590 -3 -3640 -14z m7261 -220 c123 -32 218 -112 278 -234 l32 -66 0
-1550 c0 -852 -2 -2002 -5 -2555 l-5 -1005 -34 -62 c-66 -122 -207 -220 -351
-243 -89 -14 -6995 -14 -7071 0 -133 25 -284 132 -342 244 l-32 61 -5 375 c-3
206 -6 1356 -5 2555 l0 2180 32 68 c52 110 173 211 286 237 18 5 1636 8 3597
9 3183 1 3572 -1 3625 -14z m-7516 -5567 c0 -27 -2 -29 -8 -13 -5 11 -6 26 -4
33 8 21 13 13 12 -20z m-2 -60 c-3 -8 -6 -5 -6 6 -1 11 2 17 5 13 3 -3 4 -12
1 -19z m10 -70 c-3 -7 -5 -2 -5 12 0 14 2 19 5 13 2 -7 2 -19 0 -25z"/>
<path d="M1734 7616 c-64 -30 -120 -85 -145 -143 -18 -42 -19 -74 -19 -527 l0
-482 26 -52 c31 -63 102 -127 158 -144 58 -18 933 -18 992 -1 64 20 130 78
161 142 l28 56 3 464 c3 525 2 534 -68 614 -22 25 -64 57 -92 71 l-52 26 -470
0 -471 0 -51 -24z m958 -213 c17 -15 18 -42 18 -454 l0 -439 -22 -14 c-19 -12
-94 -15 -437 -16 -375 0 -416 1 -432 16 -18 16 -19 41 -19 452 0 391 2 437 17
454 15 17 42 18 436 18 377 0 422 -2 439 -17z"/>
<path d="M6186 5429 l-26 -31 -2 -1161 c-1 -639 -2 -1180 -1 -1201 2 -30 10
-48 33 -70 l30 -31 273 -3 c149 -2 282 0 295 3 13 3 35 18 48 32 l24 26 0
1203 0 1202 -31 31 -31 31 -293 0 -293 0 -26 -31z"/>
<path d="M4807 4739 c-47 -27 -47 -27 -47 -899 0 -901 -3 -863 60 -895 24 -12
78 -15 309 -15 l279 0 31 31 31 31 0 851 c-1 901 1 870 -47 895 -29 16 -590
16 -616 1z"/>
<path d="M3419 4025 c-15 -8 -32 -29 -38 -46 -18 -51 -15 -940 3 -983 27 -65
30 -66 339 -66 359 0 353 -3 357 150 2 47 2 268 2 492 l-2 406 -31 31 -31 31
-286 0 c-230 -1 -292 -4 -313 -15z"/>
<path d="M3088 2684 c-53 -28 -72 -98 -43 -154 33 -65 -124 -60 2075 -60 2199
0 2042 -5 2075 60 28 55 12 120 -39 154 -23 15 -184 16 -2033 16 -1757 -1
-2011 -3 -2035 -16z"/>
</g>
</svg>
