<?xml version="1.0" standalone="no"?>
<!DOCTYPE svg PUBLIC "-//W3C//DTD SVG 20010904//EN"
 "http://www.w3.org/TR/2001/REC-SVG-20010904/DTD/svg10.dtd">
<svg version="1.0" xmlns="http://www.w3.org/2000/svg"
 width="1024.000000pt" height="1024.000000pt" viewBox="0 0 1024.000000 1024.000000"
 preserveAspectRatio="xMidYMid meet">

<g transform="translate(0.000000,1024.000000) scale(0.100000,-0.100000)"
fill="#000000" stroke="none">
<path d="M3122 8139 c-162 -27 -307 -166 -341 -327 -15 -71 -16 -5304 -1
-5382 29 -154 143 -281 289 -324 48 -14 264 -16 2051 -16 2191 -1 2031 -5
2136 56 48 28 134 116 157 160 50 96 47 -40 48 2461 l1 2323 -514 521 c-282
287 -523 525 -536 530 -30 12 -3220 10 -3290 -2z m3228 -489 c5 -384 5 -385
30 -435 31 -64 111 -144 175 -175 l50 -25 373 -3 372 -3 -2 -2292 -3 -2292
-27 -51 c-36 -69 -102 -130 -166 -154 -52 -20 -83 -20 -2030 -20 -1315 0
-1989 4 -2014 10 -87 25 -185 122 -207 208 -7 24 -11 1020 -13 2707 l-3 2670
21 45 c27 58 66 103 120 140 89 62 -1 59 1734 57 l1585 -2 5 -385z m631 -528
c-346 -3 -375 2 -446 73 -70 70 -75 98 -75 449 l1 301 407 -410 407 -410 -294
-3z"/>
<path d="M4868 6164 c-369 -67 -709 -290 -914 -600 -103 -156 -165 -303 -210
-499 -27 -112 -27 -423 -1 -545 85 -404 310 -723 660 -935 192 -116 479 -195
710 -195 184 0 418 50 579 123 407 186 694 534 794 965 34 143 43 373 20 517
-46 302 -175 554 -396 776 -214 215 -459 343 -749 393 -117 20 -384 20 -493 0z
m192 -727 l0 -632 -444 -444 -443 -443 -50 60 c-235 282 -337 683 -267 1052
72 383 326 721 673 899 109 56 251 103 361 121 41 6 82 13 90 15 8 1 30 3 48
4 l32 1 0 -633z m349 601 c297 -63 578 -252 764 -513 103 -144 192 -367 218
-546 11 -79 9 -392 -3 -404 -6 -6 -491 89 -903 176 -77 16 -177 37 -222 46
l-83 17 0 629 0 629 68 -7 c37 -3 109 -16 161 -27z m66 -1403 c66 -13 242 -49
390 -80 149 -31 320 -66 380 -78 61 -11 111 -22 113 -23 9 -5 -56 -171 -99
-253 -125 -239 -322 -436 -550 -551 -204 -104 -398 -146 -633 -137 -275 9
-470 73 -697 228 -147 101 -187 33 315 532 l436 434 113 -24 c61 -13 166 -34
232 -48z"/>
</g>
</svg>
