<?xml version="1.0" standalone="no"?>
<!DOCTYPE svg PUBLIC "-//W3C//DTD SVG 20010904//EN"
 "http://www.w3.org/TR/2001/REC-SVG-20010904/DTD/svg10.dtd">
<svg version="1.0" xmlns="http://www.w3.org/2000/svg"
 width="1024.000000pt" height="1024.000000pt" viewBox="0 0 1024.000000 1024.000000"
 preserveAspectRatio="xMidYMid meet">

<g transform="translate(0.000000,1024.000000) scale(0.100000,-0.100000)"
fill="#000000" stroke="none">
<path d="M6091 7454 c-105 -28 -210 -132 -231 -227 -5 -26 -10 -167 -10 -312
l0 -264 -77 -16 c-330 -70 -521 -147 -631 -255 l-42 -42 -55 51 c-176 161
-651 284 -1215 315 -478 27 -944 9 -1269 -49 -47 -8 -90 -19 -95 -25 -7 -7
-13 -96 -16 -233 l-5 -222 -115 -5 c-96 -4 -124 -9 -170 -31 -100 -47 -168
-131 -187 -234 -6 -30 -9 -586 -7 -1401 1 -1197 3 -1357 17 -1405 28 -94 97
-166 191 -200 54 -18 95 -19 1228 -19 645 0 1178 -4 1183 -8 6 -4 27 -33 49
-65 135 -200 475 -271 739 -153 67 29 149 95 188 149 16 23 36 50 44 60 14 16
84 17 1197 18 1104 0 1186 1 1226 18 62 25 138 94 170 154 l27 52 0 1410 c0
1323 -1 1412 -17 1444 -24 47 -23 58 12 88 34 28 76 95 91 145 7 21 10 213 10
516 0 541 -1 551 -68 633 -45 55 -86 85 -145 107 -38 14 -156 16 -1003 18
-812 2 -968 0 -1014 -12z m2007 -113 c48 -25 87 -66 106 -113 14 -32 16 -106
16 -520 0 -448 -2 -486 -19 -524 -22 -49 -78 -97 -130 -113 -27 -8 -227 -11
-675 -11 l-638 0 -121 -107 c-67 -59 -149 -132 -182 -162 l-60 -56 -5 146 c-3
98 -9 151 -18 162 -10 12 -40 16 -140 19 -122 3 -129 4 -172 33 -56 38 -86 82
-98 143 -5 26 -8 252 -8 502 1 446 1 456 23 495 11 22 34 52 50 67 63 60 9 57
1066 58 933 0 969 -1 1005 -19z m-4173 -746 c269 -22 450 -50 645 -101 233
-61 398 -144 449 -228 21 -33 21 -36 21 -1605 l0 -1572 -42 26 c-181 112 -515
216 -881 275 -269 42 -437 54 -807 54 -306 0 -380 -3 -535 -22 -99 -12 -189
-23 -200 -25 -20 -2 -20 5 -23 1574 l-2 1577 23 6 c39 9 276 36 402 45 212 15
748 12 950 -4z m1915 -197 c0 -91 5 -162 14 -196 42 -156 154 -241 331 -252
l90 -5 3 -174 c2 -145 5 -178 19 -193 37 -41 54 -31 284 177 73 66 152 137
175 158 l42 37 421 0 421 0 0 -1279 0 -1279 -42 9 c-100 20 -361 40 -598 46
-683 16 -1324 -89 -1700 -277 -47 -23 -97 -51 -112 -62 l-28 -19 0 1573 0
1573 26 38 c31 46 117 104 222 148 64 28 378 116 420 118 9 1 12 -34 12 -141z
m-3400 -1712 c0 -1332 1 -1374 19 -1397 l19 -23 103 17 c635 105 1498 54 2014
-118 247 -83 330 -125 430 -218 35 -33 58 -47 78 -47 l29 0 -4 -90 c-4 -108
-8 -113 -93 -106 -87 8 -174 42 -249 97 -51 38 -72 61 -96 109 -17 33 -31 61
-33 62 -1 2 -549 5 -1217 8 -1348 6 -1238 0 -1308 72 -64 65 -62 -3 -59 1488
2 977 6 1362 14 1381 18 42 74 101 113 117 31 14 213 33 233 24 4 -2 7 -621 7
-1376z m5659 1233 c17 -50 15 -62 -10 -48 -12 6 -18 14 -13 18 11 7 12 26 2
37 -11 10 -10 24 1 24 5 0 14 -14 20 -31z m-151 -5 c1 -14 -2 -23 -7 -19 -5 3
-11 -1 -14 -7 -3 -10 -7 -10 -19 0 -13 10 -17 10 -22 -4 -6 -15 -8 -15 -24 -2
-21 19 -80 28 -86 14 -2 -6 -5 1 -5 17 l-1 27 88 0 c87 0 88 0 90 -26z m-171
-286 c-3 -7 -5 -2 -5 12 0 14 2 19 5 13 2 -7 2 -19 0 -25z m0 -280 c-3 -8 -6
-5 -6 6 -1 11 2 17 5 13 3 -3 4 -12 1 -19z m0 -40 c-3 -8 -6 -5 -6 6 -1 11 2
17 5 13 3 -3 4 -12 1 -19z m0 -80 c-2 -13 -4 -5 -4 17 -1 22 1 32 4 23 2 -10
2 -28 0 -40z m0 -110 c-3 -7 -5 -2 -5 12 0 14 2 19 5 13 2 -7 2 -19 0 -25z m0
-70 c-3 -8 -6 -5 -6 6 -1 11 2 17 5 13 3 -3 4 -12 1 -19z m0 -770 c-3 -8 -6
-5 -6 6 -1 11 2 17 5 13 3 -3 4 -12 1 -19z m0 -130 c-2 -24 -4 -7 -4 37 0 44
2 63 4 43 2 -21 2 -57 0 -80z m0 -260 c-2 -24 -4 -7 -4 37 0 44 2 63 4 43 2
-21 2 -57 0 -80z m342 -365 c0 -60 -3 -99 -7 -88 -8 21 -4 195 4 195 2 0 4
-48 3 -107z m-334 -200 c-7 -54 -23 -73 -60 -73 -13 0 -9 8 14 29 29 27 31 34
32 98 1 62 2 65 11 33 5 -19 7 -58 3 -87z m-1258 -9 c-3 -3 -12 -4 -19 -1 -8
3 -5 6 6 6 11 1 17 -2 13 -5z m90 0 c-3 -3 -12 -4 -19 -1 -8 3 -5 6 6 6 11 1
17 -2 13 -5z m631 -1 c-10 -2 -28 -2 -40 0 -13 2 -5 4 17 4 22 1 32 -1 23 -4z
m115 -10 c-13 -2 -35 -2 -50 0 -16 2 -5 4 22 4 28 0 40 -2 28 -4z m-1046 -9
c-3 -3 -12 -4 -19 -1 -8 3 -5 6 6 6 11 1 17 -2 13 -5z m-547 -99 c-14 -8 -19
-14 -11 -15 11 0 11 -4 -2 -18 -10 -10 -17 -22 -17 -27 0 -5 -7 -17 -17 -27
-17 -19 -53 -25 -53 -9 0 5 -16 16 -35 25 -63 30 -62 31 95 74 51 15 69 13 40
-3z m2330 -85 c0 -20 -52 -77 -87 -97 -17 -10 -22 -9 -27 3 -3 9 -1 12 4 9 6
-3 10 -1 10 4 0 6 -4 11 -10 11 -5 0 7 17 28 38 21 21 47 38 60 38 12 0 22 -3
22 -6z m-2672 -22 c-8 -23 73 -83 98 -74 8 3 13 2 9 -3 -3 -5 1 -11 7 -14 10
-3 9 -9 -3 -23 -9 -10 -27 -39 -39 -63 -22 -44 -43 -71 -55 -71 -3 0 -4 4 -1
9 3 5 -1 11 -9 15 -8 3 -12 11 -9 19 7 20 -13 67 -29 67 -8 0 -22 9 -32 20
-10 12 -24 19 -30 16 -7 -2 -24 4 -39 13 -32 22 -28 27 64 70 74 35 73 35 68
19z m307 -8 c3 -5 -1 -10 -9 -10 -9 0 -16 5 -16 10 0 6 4 10 9 10 6 0 13 -4
16 -10z m58 -37 c18 -10 39 -23 47 -30 9 -6 45 -14 80 -16 43 -2 27 -4 -48 -5
-77 -1 -111 1 -107 8 4 6 -1 22 -9 35 -20 30 -7 32 37 8z m1742 -23 c3 -5 -1
-10 -10 -10 -9 0 -13 5 -10 10 3 6 8 10 10 10 2 0 7 -4 10 -10z m124 -15 c4 2
21 0 37 -5 20 -6 -19 -9 -120 -9 -82 -1 -147 1 -145 4 3 2 40 5 82 6 43 1 80
5 83 10 2 4 16 4 30 -1 14 -6 29 -8 33 -5z m-1571 -12 c-16 -2 -40 -2 -55 0
-16 2 -3 4 27 4 30 0 43 -2 28 -4z m59 1 c-3 -3 -12 -4 -19 -1 -8 3 -5 6 6 6
11 1 17 -2 13 -5z m391 -1 c-32 -2 -86 -2 -120 0 -35 2 -9 3 57 3 66 0 94 -1
63 -3z m535 0 c-13 -2 -33 -2 -45 0 -13 2 -3 4 22 4 25 0 35 -2 23 -4z"/>
<path d="M3102 5901 c-116 -5 -136 -9 -148 -25 -8 -11 -14 -27 -14 -37 0 -42
8 -43 519 -44 497 -1 571 -5 928 -51 142 -18 163 -13 163 40 0 24 -6 36 -22
44 -23 11 -260 41 -488 62 -140 13 -755 20 -938 11z"/>
</g>
</svg>
