<?xml version="1.0" standalone="no"?>
<!DOCTYPE svg PUBLIC "-//W3C//DTD SVG 20010904//EN"
 "http://www.w3.org/TR/2001/REC-SVG-20010904/DTD/svg10.dtd">
<svg version="1.0" xmlns="http://www.w3.org/2000/svg"
 width="1024.000000pt" height="1024.000000pt" viewBox="0 0 1024.000000 1024.000000"
 preserveAspectRatio="xMidYMid meet">

<g transform="translate(0.000000,1024.000000) scale(0.100000,-0.100000)"
fill="#000000" stroke="none">
<path d="M2867 8204 c-173 -42 -293 -153 -355 -326 l-25 -73 0 -2675 c0 -2137
2 -2686 12 -2730 42 -177 169 -310 351 -365 51 -15 226 -16 2191 -16 2102 1
2138 1 2201 21 121 37 230 126 291 237 61 113 57 -53 57 2485 0 2038 -2 2323
-15 2356 -11 26 -163 184 -522 540 -280 276 -526 515 -547 530 l-39 27 -1771
2 c-1491 1 -1780 -1 -1829 -13z m3464 -479 c-1 -323 6 -381 60 -490 41 -83
135 -175 222 -215 111 -52 171 -60 490 -60 l287 0 -2 -2262 -3 -2263 -23 -45
c-32 -61 -77 -106 -137 -138 l-50 -27 -2135 0 -2135 0 -45 24 c-61 32 -107 76
-138 136 l-27 50 -3 2675 -2 2675 30 62 c39 78 95 128 175 153 58 18 110 19
1748 17 l1688 -2 0 -290z m574 -205 l350 -351 -240 3 c-235 3 -241 4 -296 29
-68 32 -118 81 -150 145 -23 47 -24 60 -27 287 -2 130 0 237 5 237 4 0 166
-158 358 -350z"/>
<path d="M3528 6383 c-29 -18 -48 -52 -48 -84 0 -28 27 -77 49 -89 13 -7 509
-10 1516 -10 l1497 0 29 29 c38 39 40 97 5 138 l-24 28 -1499 2 c-1382 2
-1500 1 -1525 -14z"/>
<path d="M3531 5506 c-67 -37 -65 -143 4 -174 20 -9 382 -12 1516 -12 l1491 0
29 29 c41 41 41 101 0 142 l-29 29 -1494 0 c-1220 -1 -1497 -3 -1517 -14z"/>
<path d="M3544 4640 c-65 -26 -83 -109 -35 -162 l29 -33 1474 -3 c995 -2 1485
0 1509 7 47 14 69 40 76 89 4 33 1 44 -25 73 l-30 34 -1489 2 c-818 1 -1498
-2 -1509 -7z"/>
<path d="M3534 3754 c-60 -29 -72 -104 -25 -156 l29 -33 1474 -3 c1024 -2
1484 0 1510 8 66 19 95 82 66 145 -26 58 62 55 -1545 55 -1309 0 -1482 -2
-1509 -16z"/>
</g>
</svg>
