<?xml version="1.0" standalone="no"?>
<!DOCTYPE svg PUBLIC "-//W3C//DTD SVG 20010904//EN"
 "http://www.w3.org/TR/2001/REC-SVG-20010904/DTD/svg10.dtd">
<svg version="1.0" xmlns="http://www.w3.org/2000/svg"
 width="1024.000000pt" height="1024.000000pt" viewBox="0 0 1024.000000 1024.000000"
 preserveAspectRatio="xMidYMid meet">

<g transform="translate(0.000000,1024.000000) scale(0.100000,-0.100000)"
fill="#000000" stroke="none">
<path d="M4825 8614 c-370 -29 -647 -69 -963 -139 -351 -78 -723 -200 -1057
-345 -323 -141 -794 -405 -828 -464 -17 -29 -16 -1497 1 -1746 50 -719 146
-1186 349 -1700 306 -775 873 -1508 1613 -2081 280 -217 558 -404 837 -562
321 -183 338 -187 458 -122 170 92 208 113 350 198 947 568 1686 1310 2126
2137 342 642 507 1314 549 2230 12 258 13 1592 2 1635 -6 22 -27 42 -78 76
-185 123 -549 313 -805 422 -540 228 -1123 376 -1734 442 -142 16 -700 28
-820 19z m630 -164 c741 -46 1519 -258 2192 -596 151 -76 387 -211 442 -253
l23 -18 1 -699 c1 -701 -6 -925 -39 -1269 -88 -914 -381 -1688 -897 -2369
-170 -224 -484 -560 -706 -757 -113 -100 -378 -311 -498 -396 -354 -252 -814
-522 -867 -509 -61 15 -438 234 -666 386 -724 484 -1275 1047 -1668 1705 -386
647 -577 1322 -632 2240 -16 261 -24 951 -15 1336 l7 346 142 84 c723 429
1633 711 2481 768 176 12 517 12 700 1z"/>
<path d="M4843 7091 c-23 -11 -50 -32 -60 -47 -10 -15 -36 -102 -59 -192 l-41
-164 -99 -38 c-54 -21 -113 -44 -129 -50 -29 -12 -36 -9 -143 59 -62 39 -131
80 -152 91 -57 29 -117 26 -171 -9 -65 -42 -325 -310 -344 -354 -32 -78 -22
-109 94 -289 l82 -128 -24 -47 c-13 -27 -37 -85 -53 -130 l-29 -82 -75 -16
c-285 -62 -305 -71 -337 -154 -15 -39 -18 -79 -18 -271 0 -214 1 -227 23 -272
29 -59 52 -70 244 -114 84 -19 156 -38 159 -42 3 -4 16 -36 28 -71 13 -34 36
-90 51 -124 16 -33 26 -65 23 -71 -4 -6 -33 -51 -66 -100 -166 -249 -163 -272
72 -505 82 -81 165 -155 184 -164 48 -23 119 -21 168 3 21 11 87 52 146 90 58
39 110 70 115 70 5 0 23 -8 41 -17 18 -9 72 -31 121 -48 l89 -32 41 -166 c63
-254 61 -253 358 -262 230 -7 284 -2 330 29 48 32 64 67 106 236 30 120 43
155 58 162 10 4 67 28 126 53 l107 45 125 -81 c158 -100 185 -112 242 -103 58
8 93 35 257 198 142 140 176 190 177 254 0 47 -18 84 -109 224 l-80 124 48
112 c27 62 51 121 54 132 3 13 21 21 63 30 285 58 331 79 352 162 17 65 24
290 13 416 -14 167 -28 182 -223 226 -217 49 -195 35 -243 156 -23 58 -47 115
-54 128 -11 20 -4 35 75 159 97 152 112 195 94 263 -10 38 -35 69 -173 207
-88 89 -176 170 -195 179 -24 11 -52 15 -87 12 -45 -4 -73 -17 -193 -92 l-141
-87 -129 52 -130 51 -38 160 c-21 87 -46 172 -56 189 -10 17 -37 39 -61 49
-38 18 -67 20 -277 20 -209 0 -240 -3 -277 -19z m517 -278 c54 -233 56 -239
92 -256 18 -8 51 -20 73 -27 22 -7 96 -37 165 -68 l125 -55 55 30 c30 16 108
63 173 103 l119 73 145 -145 144 -144 -95 -155 c-53 -84 -97 -163 -97 -174 -3
-41 4 -62 45 -155 24 -52 53 -125 65 -162 35 -105 33 -104 231 -148 96 -22
178 -40 183 -40 4 0 7 -94 7 -210 l0 -209 -37 -10 c-21 -5 -99 -22 -173 -36
-74 -15 -145 -33 -156 -41 -13 -8 -32 -43 -49 -91 -16 -43 -48 -121 -73 -173
-24 -52 -45 -111 -45 -131 -1 -28 17 -66 95 -195 l97 -159 -143 -144 -144
-144 -49 28 c-26 16 -95 58 -153 95 -58 37 -115 70 -127 74 -15 5 -58 -9 -145
-48 -68 -30 -149 -61 -179 -70 -31 -9 -64 -23 -75 -30 -14 -11 -31 -65 -64
-198 l-45 -183 -207 -3 -207 -2 -10 37 c-6 21 -24 99 -40 174 -17 74 -33 142
-36 151 -8 19 -26 29 -150 74 -55 20 -126 49 -157 65 -88 44 -105 41 -253 -52
-186 -116 -180 -114 -213 -90 -49 34 -252 250 -252 267 0 10 32 69 72 133 103
167 119 199 112 230 -4 14 -28 73 -54 131 -26 58 -57 135 -69 172 -12 36 -28
71 -35 77 -7 6 -92 28 -189 49 -97 21 -180 42 -184 46 -10 10 -10 402 0 412 4
4 87 24 184 45 202 43 199 41 234 147 12 37 41 111 65 165 26 56 44 112 44
133 0 28 -21 70 -96 190 l-95 154 20 27 c18 26 122 129 228 227 l42 39 154
-95 c84 -53 164 -99 176 -103 15 -4 53 8 129 43 59 27 139 60 177 72 101 32
108 42 144 205 18 77 36 157 42 178 l10 37 209 0 208 0 32 -137z"/>
<path d="M5043 6158 c-460 -39 -807 -418 -806 -878 2 -398 238 -718 623 -846
79 -26 96 -28 255 -28 202 -1 251 9 400 84 274 137 460 406 483 699 22 272
-65 524 -244 705 -194 197 -439 288 -711 264z m300 -191 c109 -35 210 -99 292
-182 84 -86 127 -156 168 -272 38 -111 48 -274 23 -393 -50 -238 -240 -446
-483 -528 -70 -24 -92 -26 -223 -26 -128 0 -154 3 -222 26 -121 40 -204 92
-295 183 -67 68 -89 99 -126 176 -60 124 -80 210 -80 334 -1 276 155 521 408
645 119 58 177 70 330 66 107 -2 144 -8 208 -29z"/>
</g>
</svg>
